<svg width="39" height="24" viewBox="0 0 39 24" fill="none" xmlns="http://www.w3.org/2000/svg">
<path d="M0 1.90735e-06C3.1826 1.90735e-06 6.23485 1.26428 8.48528 3.51472C10.7357 5.76516 12 8.8174 12 12C12 15.1826 10.7357 18.2348 8.48528 20.4853C6.23485 22.7357 3.1826 24 2.2868e-06 24L1.1434e-06 16.5873C1.21663 16.5873 2.38343 16.104 3.24372 15.2437C4.104 14.3834 4.58731 13.2166 4.58731 12C4.58731 10.7834 4.104 9.61657 3.24371 8.75629C2.38343 7.896 1.21663 7.41269 0 7.41269L0 1.90735e-06Z" fill="#25242C"/>
<path d="M27 1.90735e-06C33.6274 1.90735e-06 39 5.37258 39 12C39 18.6274 33.6274 24 27 24C20.3726 24 15 18.6274 15 12C15 5.37258 20.3726 1.90735e-06 27 1.90735e-06ZM27 16.5873C29.5335 16.5873 31.5873 14.5335 31.5873 12C31.5873 9.4665 29.5335 7.41269 27 7.41269C24.4665 7.41269 22.4127 9.4665 22.4127 12C22.4127 14.5335 24.4665 16.5873 27 16.5873Z" fill="#CA3B4C"/>
</svg>
